<?xml version="1.0" encoding="UTF-8"?>
<!-- Generator: Adobe Illustrator 22.0.1, SVG Export Plug-In . SVG Version: 6.00 Build 0)  -->
<svg version="1.1" id="Слой_1" xmlns="http://www.w3.org/2000/svg" xmlns:xlink="http://www.w3.org/1999/xlink" x="0px" y="0px" viewBox="0 0 850 201.3" style="enable-background:new 0 0 850 201.3;" xml:space="preserve">
<style type="text/css">
	.st0{fill-rule:evenodd;clip-rule:evenodd;fill:#EE8A14;}
	.st1{fill:#EE8A14;}
	.st2{fill:#FFFFFF;}
</style>
<g>
	<path class="st0" d="M160.4,102.5c0,32-26.2,58.2-58.5,58.2s-58.5-26.2-58.5-58.2c0-32,26.2-57.8,58.5-57.8S160.4,70.5,160.4,102.5   z"/>
</g>
<g>
	<path class="st1" d="M41.8,185.1c-12.7-9.3-23.2-21.5-30.4-35.4C3.9,135.4,0,119.2,0,103C0,46.4,46.3,0.3,103.3,0.3   c57,0,103.3,46,103.3,102.6c0,16.4-3.8,32.1-11.3,46.6c-7.2,13.8-17.6,26.1-30.3,35.4l-11.2-14.9c21.6-15.9,34.1-40.4,34.1-67.1   c0-46.4-37.9-84.1-84.6-84.1c-46.6,0-84.6,37.7-84.6,84.1c0,26.8,12.5,51.2,34.2,67.2L41.8,185.1z"/>
</g>
<g>
	<g>
		<path class="st2" d="M128.6,104.5c-1.8-2.3-4.4-3.8-8-4.7c4.6-2.3,6.6-6.2,6-11.7c-0.2-2-0.7-3.7-1.7-5.2    c-0.9-1.5-2.2-2.6-3.8-3.5c-1.6-0.9-3.3-1.6-5.2-2c-1.9-0.5-4-0.8-6.4-1V64.8h-7.1V76c-1.2,0-3.1,0-5.6,0.1V64.8h-7.1v11.4    c-1,0-2.5,0-4.4,0l-9.7,0v7.4h5.1c2.3,0,3.7,1,4.1,3.1v13c0.3,0,0.6,0,0.7,0h-0.7v18.3c-0.2,1.5-1.1,2.3-2.7,2.3h-5.1l-1.4,8.3    h9.2c0.6,0,1.4,0,2.5,0c1.1,0,1.9,0,2.5,0v11.6h7.1V129c1.3,0,3.1,0,5.6,0v11.4h7.1v-11.6c2.5-0.1,4.7-0.3,6.7-0.7    c1.9-0.3,3.8-0.9,5.6-1.6c1.8-0.7,3.3-1.6,4.4-2.7c1.2-1.1,2.2-2.4,3-4c0.8-1.6,1.3-3.5,1.5-5.7    C131.1,110,130.4,106.8,128.6,104.5z M97.1,84.2c0.2,0,0.8,0,1.8,0c1,0,1.8,0,2.5,0c0.7,0,1.5,0,2.7,0.1c1.1,0.1,2.1,0.2,2.8,0.4    c0.8,0.2,1.6,0.4,2.5,0.7c0.9,0.3,1.6,0.8,2.2,1.3c0.6,0.5,1,1.1,1.4,1.9c0.4,0.8,0.6,1.7,0.6,2.7c0,0.8-0.1,1.6-0.4,2.3    c-0.3,0.7-0.7,1.3-1.2,1.7c-0.5,0.5-1.1,0.9-1.7,1.2c-0.6,0.3-1.3,0.6-2.2,0.8c-0.9,0.2-1.7,0.4-2.4,0.5c-0.7,0.1-1.5,0.2-2.5,0.2    c-1,0-1.8,0.1-2.3,0.1c-0.5,0-1.2,0-2.1,0c-0.9,0-1.4,0-1.6,0L97.1,84.2L97.1,84.2L97.1,84.2z M116.3,115.2    c-0.3,0.7-0.7,1.3-1.1,1.8c-0.5,0.5-1.1,1-1.8,1.4c-0.7,0.4-1.5,0.7-2.2,1c-0.7,0.2-1.6,0.5-2.5,0.6c-1,0.2-1.9,0.3-2.6,0.4    c-0.7,0.1-1.6,0.1-2.7,0.2c-1,0-1.8,0.1-2.4,0.1c-0.6,0-1.3,0-2.2,0c-0.9,0-1.5,0-1.7,0v-15.4c0.2,0,1,0,2.2,0c1.2,0,2.2,0,3,0    c0.8,0,1.8,0,3.2,0.1c1.3,0.1,2.5,0.2,3.4,0.4c0.9,0.2,1.9,0.5,3,0.8c1.1,0.4,2,0.8,2.6,1.4c0.7,0.5,1.2,1.2,1.7,2.1    c0.5,0.8,0.7,1.8,0.7,2.9C116.8,113.7,116.6,114.5,116.3,115.2z"/>
	</g>
</g>
<g>
	<path class="st1" d="M69,194.8c1.6,1,4.5,2.2,7.2,2.2c4,0,5.8-2,5.8-4.4c0-2.6-1.6-4-5.6-5.5c-5.4-1.9-8-4.9-8-8.4   c0-4.8,3.9-8.8,10.4-8.8c3,0,5.7,0.9,7.4,1.9l-1.4,3.9c-1.2-0.7-3.4-1.7-6.2-1.7c-3.2,0-5,1.9-5,4.1c0,2.5,1.8,3.6,5.7,5.1   c5.2,2,7.9,4.6,7.9,9c0,5.2-4.1,8.9-11.3,8.9c-3.3,0-6.3-0.8-8.5-2L69,194.8z"/>
	<path class="st1" d="M96.5,170.5l4,15.2c0.9,3.3,1.7,6.4,2.2,9.5h0.2c0.7-3,1.7-6.2,2.7-9.4l4.9-15.2h4.6l4.7,14.9   c1.1,3.6,2,6.7,2.7,9.7h0.2c0.5-3,1.3-6.2,2.3-9.7l4.3-15h5.4l-9.7,29.8h-5l-4.6-14.2c-1.1-3.3-1.9-6.3-2.7-9.8h-0.1   c-0.7,3.6-1.7,6.7-2.7,9.9l-4.9,14.2h-5l-9.1-29.8H96.5z"/>
</g>
<g>
	<path class="st2" d="M233.1,132.8l6.4-8.1c5.7,6.3,15.1,12.2,27.3,12.2c15.5,0,20.4-8.2,20.4-14.8c0-22.2-51.3-9.9-51.3-40.6   c0-14.2,12.7-23.8,29.8-23.8c13.3,0,23.5,4.4,30.8,12l-6.5,7.9c-6.5-7.1-15.6-10.3-25.1-10.3c-10.4,0-17.8,5.5-17.8,13.7   c0,19.3,51.3,8.2,51.3,40.3c0,12.5-8.6,25.3-32,25.3C251.3,146.4,240.2,140.7,233.1,132.8z"/>
	<path class="st2" d="M314.5,144.9v-86h56.8v9.5h-46v27.7h45.1v9.5h-45.1v29.6h46v9.5H314.5z"/>
	<path class="st2" d="M384.9,102c0-26.7,19.9-44.5,44.6-44.5c15.3,0,26,6.7,33.7,16.1l-8.6,5.3c-5.5-7-14.7-11.9-25.1-11.9   c-19,0-33.4,14.4-33.4,34.9c0,20.4,14.4,35.1,33.4,35.1c10.4,0,19-5,23.3-9.3v-17.5H423v-9.5h40.6v31.1   c-8.1,8.9-19.9,14.8-34.1,14.8C404.8,146.5,384.9,128.6,384.9,102z"/>
	<path class="st2" d="M547,144.9l-19.1-69.3l-19.1,69.3h-11.7l-24.7-86h12l19.2,71.6l19.9-71.6h9l19.9,71.6l19.1-71.6h12l-24.7,86   H547z"/>
	<path class="st2" d="M595.5,144.9v-86h10.8v86H595.5z"/>
	<path class="st2" d="M648,144.9V68.5h-27.4v-9.5h65.8v9.5h-27.6v76.4H648z"/>
	<path class="st2" d="M697.5,144.9v-8.5c31.2-24.4,48.1-38.7,48.1-53.5c0-11-9.1-15.7-18.1-15.7c-10.4,0-18.5,4.4-23.5,10.8   l-6.6-6.8c6.6-8.6,17.9-13.5,30.2-13.5c14.4,0,29.1,8.1,29.1,25.3c0,17.5-17.9,33.5-42.1,52.4h42.5v9.5H697.5z"/>
	<path class="st2" d="M837,144.9l-27.7-36.6l-27.7,36.6h-13.1l33.8-44.1l-31.8-41.9h13.1l25.7,34.4l25.6-34.4h13.1l-31.7,41.8   l33.7,44.2H837z"/>
</g>
</svg>